<svg xmlns="http://www.w3.org/2000/svg" xmlns:xlink="http://www.w3.org/1999/xlink" width="500" zoomAndPan="magnify" viewBox="0 0 375 374.999991" height="500" preserveAspectRatio="xMidYMid meet" version="1.0"><defs><clipPath id="5aeb5aa0e4"><path d="M 170 158.601562 L 235.988281 158.601562 L 235.988281 200 L 170 200 Z M 170 158.601562 " clip-rule="nonzero"/></clipPath><clipPath id="eca4ee6495"><path d="M 179 201 L 195 201 L 195 216.351562 L 179 216.351562 Z M 179 201 " clip-rule="nonzero"/></clipPath><clipPath id="3021aa5388"><path d="M 200 201 L 215 201 L 215 216.351562 L 200 216.351562 Z M 200 201 " clip-rule="nonzero"/></clipPath><clipPath id="7833312164"><path d="M 139.238281 183 L 178 183 L 178 189 L 139.238281 189 Z M 139.238281 183 " clip-rule="nonzero"/></clipPath></defs><g clip-path="url(#5aeb5aa0e4)"><path fill="#fff" d="M 235.753906 169.898438 L 229.082031 197.617188 C 229.082031 197.882812 229.027344 198.140625 228.925781 198.382812 C 228.824219 198.628906 228.679688 198.847656 228.492188 199.035156 C 228.300781 199.222656 228.085938 199.371094 227.839844 199.472656 C 227.59375 199.574219 227.335938 199.625 227.070312 199.625 L 182.105469 199.953125 C 181.839844 199.953125 181.585938 199.898438 181.339844 199.796875 C 181.09375 199.695312 180.875 199.550781 180.6875 199.363281 C 180.5 199.171875 180.355469 198.957031 180.25 198.710938 C 180.148438 198.464844 180.097656 198.207031 180.097656 197.941406 L 180.097656 169.894531 C 180.097656 169.839844 180.097656 169.785156 180.101562 169.730469 L 179.496094 164.304688 L 172.847656 164.304688 C 172.480469 164.289062 172.128906 164.207031 171.792969 164.058594 C 171.457031 163.90625 171.164062 163.699219 170.910156 163.433594 C 170.652344 163.167969 170.457031 162.863281 170.320312 162.523438 C 170.183594 162.179688 170.113281 161.828125 170.113281 161.457031 C 170.113281 161.089844 170.183594 160.734375 170.320312 160.394531 C 170.457031 160.054688 170.652344 159.75 170.910156 159.484375 C 171.164062 159.21875 171.457031 159.011719 171.792969 158.859375 C 172.128906 158.710938 172.480469 158.625 172.847656 158.613281 L 184.582031 158.613281 C 184.582031 158.621094 184.582031 158.632812 184.582031 158.640625 L 185.214844 164.308594 L 185.617188 167.890625 L 233.746094 167.890625 C 234.011719 167.890625 234.265625 167.941406 234.511719 168.042969 C 234.757812 168.144531 234.976562 168.292969 235.164062 168.480469 C 235.351562 168.667969 235.496094 168.886719 235.601562 169.132812 C 235.703125 169.378906 235.753906 169.632812 235.753906 169.898438 Z M 235.753906 169.898438 " fill-opacity="1" fill-rule="nonzero"/></g><g clip-path="url(#eca4ee6495)"><path fill="#fff" d="M 194.089844 209.066406 C 194.089844 209.546875 194.042969 210.023438 193.945312 210.496094 C 193.851562 210.96875 193.714844 211.425781 193.53125 211.871094 C 193.347656 212.3125 193.121094 212.734375 192.855469 213.136719 C 192.585938 213.535156 192.28125 213.90625 191.941406 214.246094 C 191.601562 214.585938 191.234375 214.890625 190.832031 215.15625 C 190.433594 215.421875 190.011719 215.648438 189.566406 215.832031 C 189.121094 216.015625 188.664062 216.15625 188.191406 216.25 C 187.722656 216.34375 187.246094 216.390625 186.765625 216.390625 C 186.285156 216.390625 185.808594 216.34375 185.335938 216.25 C 184.863281 216.15625 184.40625 216.015625 183.960938 215.832031 C 183.515625 215.648438 183.09375 215.421875 182.695312 215.15625 C 182.296875 214.890625 181.925781 214.585938 181.585938 214.246094 C 181.246094 213.90625 180.941406 213.535156 180.675781 213.136719 C 180.40625 212.734375 180.183594 212.3125 179.996094 211.871094 C 179.8125 211.425781 179.675781 210.96875 179.582031 210.496094 C 179.488281 210.023438 179.441406 209.546875 179.441406 209.066406 C 179.441406 208.585938 179.488281 208.109375 179.582031 207.636719 C 179.675781 207.167969 179.8125 206.707031 179.996094 206.265625 C 180.183594 205.820312 180.40625 205.398438 180.675781 204.996094 C 180.941406 204.597656 181.246094 204.226562 181.585938 203.886719 C 181.925781 203.546875 182.296875 203.246094 182.695312 202.976562 C 183.09375 202.710938 183.515625 202.484375 183.960938 202.300781 C 184.40625 202.117188 184.863281 201.976562 185.335938 201.882812 C 185.808594 201.789062 186.285156 201.742188 186.765625 201.742188 C 187.246094 201.742188 187.722656 201.789062 188.191406 201.882812 C 188.664062 201.976562 189.121094 202.117188 189.566406 202.300781 C 190.011719 202.484375 190.433594 202.710938 190.832031 202.976562 C 191.234375 203.246094 191.601562 203.546875 191.941406 203.886719 C 192.28125 204.226562 192.585938 204.597656 192.855469 204.996094 C 193.121094 205.398438 193.347656 205.820312 193.53125 206.265625 C 193.714844 206.707031 193.851562 207.167969 193.945312 207.636719 C 194.042969 208.109375 194.089844 208.585938 194.089844 209.066406 Z M 194.089844 209.066406 " fill-opacity="1" fill-rule="nonzero"/></g><g clip-path="url(#3021aa5388)"><path fill="#fff" d="M 214.757812 209.066406 C 214.757812 209.546875 214.710938 210.023438 214.617188 210.496094 C 214.523438 210.96875 214.382812 211.425781 214.199219 211.871094 C 214.015625 212.3125 213.792969 212.734375 213.523438 213.136719 C 213.257812 213.535156 212.953125 213.90625 212.613281 214.246094 C 212.273438 214.585938 211.902344 214.890625 211.503906 215.15625 C 211.101562 215.421875 210.679688 215.648438 210.238281 215.832031 C 209.792969 216.015625 209.335938 216.15625 208.863281 216.25 C 208.390625 216.34375 207.914062 216.390625 207.433594 216.390625 C 206.953125 216.390625 206.476562 216.34375 206.003906 216.25 C 205.535156 216.15625 205.074219 216.015625 204.632812 215.832031 C 204.1875 215.648438 203.765625 215.421875 203.367188 215.15625 C 202.964844 214.890625 202.59375 214.585938 202.253906 214.246094 C 201.914062 213.90625 201.613281 213.535156 201.34375 213.136719 C 201.078125 212.734375 200.851562 212.3125 200.667969 211.871094 C 200.484375 211.425781 200.34375 210.96875 200.25 210.496094 C 200.15625 210.023438 200.109375 209.546875 200.109375 209.066406 C 200.109375 208.585938 200.15625 208.109375 200.25 207.636719 C 200.34375 207.167969 200.484375 206.707031 200.667969 206.265625 C 200.851562 205.820312 201.078125 205.398438 201.34375 204.996094 C 201.613281 204.597656 201.914062 204.226562 202.253906 203.886719 C 202.59375 203.546875 202.964844 203.246094 203.367188 202.976562 C 203.765625 202.710938 204.1875 202.484375 204.632812 202.300781 C 205.074219 202.117188 205.535156 201.976562 206.003906 201.882812 C 206.476562 201.789062 206.953125 201.742188 207.433594 201.742188 C 207.914062 201.742188 208.390625 201.789062 208.863281 201.882812 C 209.335938 201.976562 209.792969 202.117188 210.238281 202.300781 C 210.679688 202.484375 211.101562 202.710938 211.503906 202.976562 C 211.902344 203.246094 212.273438 203.546875 212.613281 203.886719 C 212.953125 204.226562 213.257812 204.597656 213.523438 204.996094 C 213.792969 205.398438 214.015625 205.820312 214.199219 206.265625 C 214.382812 206.707031 214.523438 207.167969 214.617188 207.636719 C 214.710938 208.109375 214.757812 208.585938 214.757812 209.066406 Z M 214.757812 209.066406 " fill-opacity="1" fill-rule="nonzero"/></g><path fill="#fff" d="M 158.445312 170.328125 L 175.207031 170.328125 C 175.46875 170.328125 175.714844 170.378906 175.957031 170.480469 C 176.195312 170.578125 176.40625 170.71875 176.589844 170.902344 C 176.773438 171.085938 176.914062 171.296875 177.011719 171.535156 C 177.113281 171.773438 177.160156 172.023438 177.160156 172.28125 L 177.160156 172.769531 C 177.160156 173.03125 177.113281 173.28125 177.011719 173.519531 C 176.914062 173.757812 176.773438 173.96875 176.589844 174.152344 C 176.40625 174.335938 176.195312 174.476562 175.957031 174.574219 C 175.714844 174.675781 175.46875 174.722656 175.207031 174.722656 L 158.445312 174.722656 C 158.183594 174.722656 157.9375 174.675781 157.695312 174.574219 C 157.457031 174.476562 157.246094 174.335938 157.0625 174.152344 C 156.878906 173.96875 156.738281 173.757812 156.640625 173.519531 C 156.539062 173.28125 156.492188 173.03125 156.492188 172.769531 L 156.492188 172.28125 C 156.492188 172.023438 156.539062 171.773438 156.640625 171.535156 C 156.738281 171.296875 156.878906 171.085938 157.0625 170.902344 C 157.246094 170.71875 157.457031 170.578125 157.695312 170.480469 C 157.9375 170.378906 158.183594 170.328125 158.445312 170.328125 Z M 158.445312 170.328125 " fill-opacity="1" fill-rule="nonzero"/><path fill="#fff" d="M 158.445312 197.671875 L 175.207031 197.671875 C 175.46875 197.671875 175.714844 197.722656 175.957031 197.820312 C 176.195312 197.921875 176.40625 198.0625 176.589844 198.246094 C 176.773438 198.429688 176.914062 198.640625 177.011719 198.878906 C 177.113281 199.117188 177.160156 199.367188 177.160156 199.625 L 177.160156 200.113281 C 177.160156 200.375 177.113281 200.621094 177.011719 200.863281 C 176.914062 201.101562 176.773438 201.3125 176.589844 201.496094 C 176.40625 201.679688 176.195312 201.820312 175.957031 201.917969 C 175.714844 202.019531 175.46875 202.066406 175.207031 202.066406 L 158.445312 202.066406 C 158.183594 202.066406 157.9375 202.019531 157.695312 201.917969 C 157.457031 201.820312 157.246094 201.679688 157.0625 201.496094 C 156.878906 201.3125 156.738281 201.101562 156.640625 200.863281 C 156.539062 200.621094 156.492188 200.375 156.492188 200.113281 L 156.492188 199.625 C 156.492188 199.367188 156.539062 199.117188 156.640625 198.878906 C 156.738281 198.640625 156.878906 198.429688 157.0625 198.246094 C 157.246094 198.0625 157.457031 197.921875 157.695312 197.820312 C 157.9375 197.722656 158.183594 197.671875 158.445312 197.671875 Z M 158.445312 197.671875 " fill-opacity="1" fill-rule="nonzero"/><g clip-path="url(#7833312164)"><path fill="#fff" d="M 141.4375 183.675781 L 174.964844 183.675781 C 175.253906 183.675781 175.535156 183.730469 175.804688 183.84375 C 176.074219 183.957031 176.3125 184.113281 176.519531 184.320312 C 176.722656 184.527344 176.882812 184.761719 176.992188 185.03125 C 177.105469 185.300781 177.160156 185.582031 177.160156 185.875 C 177.160156 186.164062 177.105469 186.445312 176.992188 186.714844 C 176.882812 186.984375 176.722656 187.222656 176.519531 187.425781 C 176.3125 187.632812 176.074219 187.792969 175.804688 187.902344 C 175.535156 188.015625 175.253906 188.070312 174.964844 188.070312 L 141.4375 188.070312 C 141.144531 188.070312 140.863281 188.015625 140.59375 187.902344 C 140.324219 187.792969 140.089844 187.632812 139.882812 187.425781 C 139.675781 187.222656 139.515625 186.984375 139.40625 186.714844 C 139.292969 186.445312 139.238281 186.164062 139.238281 185.875 C 139.238281 185.582031 139.292969 185.300781 139.40625 185.03125 C 139.515625 184.761719 139.675781 184.527344 139.882812 184.320312 C 140.089844 184.113281 140.324219 183.957031 140.59375 183.84375 C 140.863281 183.730469 141.144531 183.675781 141.4375 183.675781 Z M 141.4375 183.675781 " fill-opacity="1" fill-rule="nonzero"/></g></svg>